<?xml version="1.0" standalone="no"?>
<!DOCTYPE svg PUBLIC "-//W3C//DTD SVG 20010904//EN"
 "http://www.w3.org/TR/2001/REC-SVG-20010904/DTD/svg10.dtd">
<svg version="1.0" xmlns="http://www.w3.org/2000/svg"
 width="3000.000000pt" height="3000.000000pt" viewBox="0 0 3000.000000 3000.000000"
 preserveAspectRatio="xMidYMid meet">

<g transform="translate(0.000000,3000.000000) scale(0.100000,-0.100000)"
fill="#000000" stroke="none">
<path d="M6247 25300 c-60 -6 -87 -14 -120 -36 -57 -37 -94 -78 -120 -133
l-22 -46 -3 -850 c-2 -628 0 -860 9 -890 21 -74 77 -141 148 -177 l65 -33 530
-6 c553 -6 577 -8 710 -53 107 -37 267 -124 332 -182 12 -11 36 -33 55 -49 47
-41 159 -176 159 -191 0 -6 6 -17 14 -23 24 -20 95 -176 121 -266 14 -48 29
-134 35 -193 11 -113 14 -1680 4 -1719 -5 -16 -25 -29 -78 -49 -39 -14 -94
-37 -123 -50 -28 -13 -57 -24 -63 -24 -7 0 -24 -6 -38 -14 -15 -8 -58 -26 -97
-41 -38 -16 -99 -41 -135 -58 -36 -16 -81 -35 -100 -42 -19 -7 -59 -25 -87
-39 -29 -14 -55 -26 -58 -26 -2 0 -53 -23 -111 -50 -59 -28 -118 -53 -131 -56
-12 -4 -23 -10 -23 -15 0 -5 -5 -9 -10 -9 -10 0 -295 -140 -394 -193 -27 -15
-55 -27 -62 -27 -8 0 -14 -4 -14 -8 0 -4 -21 -18 -47 -31 -55 -26 -338 -186
-431 -243 -34 -21 -67 -38 -72 -38 -6 0 -10 -4 -10 -9 0 -5 -8 -11 -17 -15
-10 -3 -31 -15 -48 -26 -16 -11 -37 -23 -45 -26 -8 -4 -35 -21 -60 -39 -25
-18 -52 -35 -60 -38 -19 -8 -389 -261 -508 -347 -131 -94 -166 -160 -127 -236
19 -40 49 -65 115 -100 30 -16 57 -31 60 -34 4 -4 169 -87 429 -214 51 -25
141 -67 200 -92 58 -25 131 -57 161 -71 30 -14 93 -41 140 -60 47 -19 99 -41
116 -48 71 -33 383 -152 579 -221 116 -41 226 -81 245 -89 19 -7 78 -27 130
-44 52 -16 109 -34 125 -40 43 -15 292 -91 482 -147 133 -39 163 -51 167 -68
9 -32 7 -319 -2 -333 -7 -11 -45 -2 -267 63 -27 8 -72 21 -100 29 -27 7 -63
19 -80 25 -16 7 -63 21 -104 32 -214 56 -1272 432 -1291 458 -3 4 -33 16 -66
28 -34 12 -86 32 -115 45 -30 14 -103 46 -164 72 -60 26 -146 64 -190 85 -44
21 -104 48 -132 60 -29 12 -53 26 -53 31 0 5 -7 9 -16 9 -19 0 -298 139 -302
151 -2 5 -9 9 -16 9 -7 0 -33 11 -57 23 -79 43 -183 100 -214 119 -16 10 -37
21 -45 25 -8 4 -46 26 -84 49 l-69 43 -26 -19 c-104 -75 -487 -452 -651 -640
-36 -41 -67 -77 -70 -80 -3 -3 -24 -27 -45 -55 -22 -27 -46 -56 -53 -64 -8 -8
-32 -38 -54 -68 -22 -29 -44 -53 -49 -53 -5 0 -9 -4 -9 -10 0 -5 -37 -60 -83
-122 -78 -107 -230 -331 -238 -353 -2 -5 -20 -36 -39 -68 -211 -353 -378 -741
-486 -1132 -31 -115 -99 -460 -114 -587 -18 -156 -28 -479 -19 -669 12 -263
67 -602 139 -854 30 -106 111 -359 129 -400 5 -11 19 -45 31 -75 13 -30 36
-83 52 -118 15 -34 28 -65 28 -68 0 -7 123 -257 130 -264 3 -3 18 -30 34 -60
31 -59 86 -153 122 -210 12 -19 34 -55 49 -80 16 -25 31 -47 34 -50 4 -3 22
-30 41 -60 19 -30 38 -59 42 -65 5 -5 52 -68 105 -140 90 -121 254 -326 292
-364 9 -9 43 -48 76 -86 106 -122 556 -564 575 -565 3 0 24 -18 47 -40 43 -41
113 -79 147 -80 17 0 255 117 266 131 9 11 426 218 454 225 14 3 26 10 26 15
0 5 5 9 10 9 6 0 59 23 118 51 59 28 132 62 162 74 85 36 223 94 245 105 11 5
101 41 200 80 99 39 189 75 200 80 11 6 61 24 110 40 50 17 99 35 110 40 33
15 441 155 570 195 66 20 129 41 140 45 11 5 61 20 110 35 50 14 124 37 165
50 41 13 118 35 170 49 52 14 111 30 129 35 26 8 37 8 43 -2 10 -15 10 -328 0
-342 -4 -6 -61 -25 -127 -44 -66 -18 -129 -37 -140 -42 -11 -5 -74 -25 -140
-45 -183 -55 -237 -72 -270 -83 -16 -6 -82 -28 -145 -49 -162 -54 -285 -97
-560 -197 -66 -23 -220 -85 -275 -109 -16 -7 -64 -26 -105 -42 -41 -15 -79
-31 -85 -35 -5 -4 -71 -32 -145 -64 -74 -31 -169 -73 -210 -92 -228 -108 -262
-123 -270 -123 -6 0 -10 -4 -10 -10 0 -5 -6 -10 -12 -10 -7 0 -26 -7 -43 -16
-16 -9 -70 -36 -118 -61 -109 -56 -142 -83 -157 -129 -27 -80 -1 -132 102
-207 71 -52 239 -167 244 -167 3 0 33 -19 67 -43 69 -48 235 -154 327 -207 33
-19 106 -62 162 -94 57 -33 128 -74 158 -91 56 -33 166 -92 275 -149 33 -17
62 -33 65 -36 8 -8 403 -200 525 -255 33 -15 85 -40 117 -55 31 -16 67 -31 80
-35 12 -4 50 -20 83 -35 126 -59 574 -240 592 -240 4 0 19 -6 33 -13 14 -7 68
-28 120 -46 52 -18 104 -37 115 -42 81 -35 172 -61 205 -56 l37 5 33 -82 c18
-44 48 -113 66 -153 18 -39 36 -83 40 -97 3 -14 10 -26 15 -26 5 0 9 -5 9 -10
0 -12 141 -302 151 -310 3 -3 24 -39 46 -80 94 -177 212 -373 292 -485 20 -28
41 -58 46 -67 22 -36 89 -133 95 -138 3 -3 21 -27 40 -55 19 -27 36 -52 40
-55 3 -3 17 -21 30 -40 26 -39 174 -222 229 -286 20 -22 56 -64 81 -93 112
-133 401 -427 541 -551 46 -41 100 -90 120 -110 20 -19 43 -39 52 -45 8 -5 66
-52 128 -103 193 -157 264 -210 504 -373 61 -41 135 -90 165 -108 30 -19 57
-36 60 -40 3 -3 21 -14 40 -24 62 -33 95 -52 100 -58 3 -3 23 -14 45 -26 37
-19 56 -29 153 -84 20 -12 105 -55 187 -96 83 -40 162 -80 177 -88 14 -8 33
-15 41 -15 9 0 17 -3 19 -8 3 -8 219 -101 353 -152 44 -17 103 -39 130 -50 28
-10 62 -22 78 -26 15 -3 30 -10 33 -15 3 -5 13 -9 22 -9 16 0 195 -54 237 -71
11 -4 45 -14 75 -22 30 -8 109 -29 175 -47 209 -55 434 -99 786 -154 310 -49
874 -74 1271 -57 368 15 570 37 933 100 105 18 387 81 450 101 17 5 73 21 125
36 112 31 356 111 455 149 39 15 81 30 95 35 14 4 104 43 200 85 96 42 185 79
198 82 12 3 22 9 22 13 0 8 130 70 147 70 6 0 13 4 15 8 2 5 50 33 108 64 164
87 175 93 178 100 2 5 8 8 13 8 19 0 331 202 519 336 112 80 333 257 434 347
38 34 95 84 125 112 85 76 284 278 395 400 55 61 110 121 123 135 13 14 74 88
134 165 116 148 120 154 173 225 56 76 272 402 297 449 13 24 29 51 34 60 52
84 150 269 223 421 127 264 132 274 213 487 41 106 80 193 86 193 7 0 59 16
115 36 57 20 123 42 148 49 53 16 236 81 265 94 11 6 49 20 85 32 165 55 638
244 788 315 40 19 75 34 78 34 3 0 35 14 72 31 37 17 92 42 122 56 131 60 512
245 520 253 3 3 34 20 70 38 36 18 72 37 80 42 8 5 104 59 213 120 109 61 223
127 252 146 30 18 58 34 62 34 5 0 18 7 28 15 11 9 78 52 149 96 71 44 143 91
161 105 17 13 35 24 38 24 7 0 179 119 281 194 42 31 79 56 84 56 12 0 42 56
42 80 0 56 -25 73 -304 213 -244 122 -441 217 -451 217 -2 0 -33 14 -68 30
-36 17 -68 30 -71 30 -3 0 -38 15 -78 34 -77 36 -226 98 -341 140 -37 14 -82
32 -100 40 -64 31 -677 248 -748 266 -19 5 -73 22 -120 38 -114 40 -283 92
-298 92 -6 0 -19 4 -29 9 -9 6 -42 17 -72 25 -30 9 -102 29 -160 45 -280 78
-345 96 -475 127 -77 19 -153 39 -170 44 -41 13 -387 94 -510 120 -55 12 -134
29 -175 39 -41 10 -118 26 -170 35 -52 10 -126 24 -165 32 -134 29 -279 54
-314 54 -56 -1 -75 -25 -110 -141 -18 -57 -43 -139 -57 -182 -13 -43 -24 -85
-24 -93 0 -8 -4 -14 -10 -14 -5 0 -10 -8 -10 -18 0 -17 -49 -170 -69 -217 -5
-11 -19 -51 -31 -90 -13 -38 -31 -88 -40 -110 -10 -22 -30 -71 -45 -110 -15
-38 -33 -83 -40 -100 -8 -16 -38 -87 -69 -157 -60 -136 -193 -410 -254 -523
-92 -168 -116 -212 -134 -237 -10 -14 -18 -29 -18 -33 0 -3 -13 -26 -30 -50
-16 -24 -30 -47 -30 -51 0 -4 -11 -22 -25 -40 -14 -18 -25 -35 -25 -38 0 -2
-33 -53 -72 -111 -40 -59 -77 -115 -83 -124 -13 -21 -138 -194 -145 -201 -3
-3 -25 -32 -50 -65 -48 -65 -158 -202 -201 -250 -14 -16 -64 -73 -110 -125
-135 -152 -363 -375 -514 -500 -49 -41 -101 -85 -115 -97 -14 -13 -27 -23 -30
-23 -3 0 -26 -18 -50 -40 -24 -22 -47 -40 -51 -40 -4 0 -14 -6 -21 -14 -24
-23 -357 -245 -427 -283 -94 -52 -121 -79 -121 -123 0 -42 27 -76 67 -86 33
-9 225 8 543 46 135 17 283 35 330 40 47 6 141 19 210 30 69 11 197 31 285 44
315 49 600 100 607 110 5 8 10 8 18 0 7 -7 2 -21 -15 -45 -14 -18 -33 -45 -42
-58 -136 -189 -402 -461 -577 -591 -26 -19 -57 -44 -69 -55 -22 -20 -213 -149
-252 -171 -11 -6 -42 -24 -70 -41 -85 -50 -332 -173 -349 -173 -4 0 -26 -8
-49 -18 -23 -10 -60 -26 -82 -35 -59 -24 -260 -85 -340 -103 -38 -8 -88 -19
-110 -24 -241 -54 -509 -74 -884 -67 -421 8 -691 51 -1011 161 -208 72 -530
216 -530 238 0 4 -5 8 -11 8 -9 0 -84 40 -154 83 -56 34 -281 200 -355 261
-168 140 -372 358 -512 546 -110 150 -153 220 -134 220 3 0 40 -18 83 -39 43
-22 107 -51 143 -66 36 -14 79 -32 95 -40 33 -15 104 -41 150 -55 17 -6 39
-14 50 -19 31 -14 278 -80 385 -102 113 -24 343 -59 384 -59 37 0 112 56 126
94 7 20 10 738 10 2255 0 2099 -1 2228 -18 2261 -9 19 -32 45 -51 57 -32 22
-44 23 -215 23 -246 0 -1261 -43 -1563 -67 l-83 -6 0 171 c0 94 4 173 8 176
31 19 880 61 1464 73 317 6 340 7 374 27 21 12 47 34 58 49 l21 28 3 1457 c2
1139 0 1464 -10 1487 -19 46 -55 73 -111 84 -29 6 -257 15 -507 22 -250 6
-480 12 -510 14 -418 24 -768 47 -777 50 -10 3 -13 47 -13 174 0 126 3 170 13
173 6 3 53 1 102 -3 90 -7 310 -22 605 -39 244 -15 1071 -34 1111 -27 40 8 69
30 87 64 17 31 17 4800 1 4805 -16 5 -240 -18 -369 -38 -132 -20 -414 -91
-548 -138 -56 -20 -109 -36 -116 -36 -8 0 -16 -3 -18 -7 -2 -5 -41 -23 -88
-42 -109 -44 -338 -157 -460 -228 -133 -77 -214 -125 -220 -132 -13 -16 -89
-59 -94 -54 -10 10 -7 1205 4 1335 8 104 27 204 50 263 28 73 109 229 143 275
63 86 187 204 279 264 122 80 227 123 374 157 31 7 252 14 589 18 623 7 578 0
683 104 17 17 41 56 52 85 20 53 20 73 18 915 -3 821 -4 864 -22 897 -51 96
-122 150 -222 170 -59 11 -8480 11 -8597 0z m8263 -1060 l0 -480 -1037 0
c-596 0 -1076 -4 -1128 -10 -231 -24 -378 -58 -580 -130 -33 -12 -64 -25 -70
-29 -5 -4 -46 -22 -90 -41 -44 -19 -82 -37 -85 -41 -3 -3 -25 -16 -50 -29 -25
-12 -73 -42 -108 -66 -35 -24 -65 -44 -68 -44 -5 0 -81 -57 -94 -70 -3 -3 -36
-32 -75 -66 -92 -80 -149 -137 -210 -210 -27 -32 -52 -61 -55 -64 -29 -28
-136 -188 -181 -270 -13 -25 -26 -47 -29 -50 -10 -9 -70 -137 -70 -149 0 -6
-4 -11 -10 -11 -5 0 -10 -7 -10 -15 0 -20 -43 -125 -51 -125 -4 0 -10 12 -14
27 -10 40 -109 254 -153 329 -38 66 -153 231 -197 284 -63 75 -204 219 -261
266 -92 76 -119 99 -122 107 -2 4 -9 7 -15 7 -6 0 -18 6 -26 14 -16 14 -229
146 -236 146 -3 0 -46 20 -97 43 -175 82 -357 136 -588 175 -82 13 -246 16
-1167 19 l-1073 4 0 479 0 480 3975 0 3975 0 0 -480z m-5830 -720 c69 -5 161
-17 205 -25 231 -46 528 -175 725 -315 92 -67 297 -257 358 -333 250 -312 395
-671 421 -1037 5 -63 9 -2673 10 -5800 1 -3126 4 -5687 6 -5690 2 -3 8 -68 15
-145 44 -543 203 -1163 410 -1601 22 -45 42 -93 46 -108 3 -14 10 -26 15 -26
5 0 9 -8 9 -18 0 -10 4 -22 9 -27 4 -6 37 -64 71 -130 35 -66 80 -149 101
-183 22 -35 39 -68 39 -73 0 -5 4 -9 9 -9 5 0 14 -14 21 -31 7 -17 37 -66 67
-110 29 -44 53 -83 53 -85 0 -3 13 -22 29 -42 15 -20 70 -93 121 -162 51 -69
109 -143 129 -166 20 -22 45 -52 56 -65 88 -109 301 -330 435 -449 40 -36 87
-78 105 -95 125 -114 349 -283 569 -429 38 -25 70 -46 72 -46 2 0 43 -24 91
-53 48 -29 105 -61 126 -72 20 -11 37 -23 37 -26 0 -4 14 -10 30 -14 17 -4 36
-12 43 -18 6 -7 37 -24 67 -39 147 -71 252 -119 301 -138 30 -11 63 -25 74
-30 11 -5 58 -23 105 -40 47 -17 94 -35 105 -40 29 -13 144 -50 190 -61 22 -6
49 -15 60 -19 23 -10 110 -34 258 -71 128 -31 494 -94 632 -108 534 -54 1089
-31 1580 64 326 63 769 195 973 290 29 14 55 25 58 25 8 0 220 97 284 131 66
34 192 99 240 125 19 11 37 22 40 25 3 3 59 39 125 79 66 41 125 78 130 82 6
5 55 39 110 77 55 38 105 73 110 78 6 4 26 22 46 38 20 17 52 41 70 55 18 14
56 45 84 68 27 24 77 67 110 95 73 62 379 369 455 457 30 35 101 122 157 194
57 72 107 136 112 142 28 34 231 344 231 352 0 6 4 12 8 14 15 6 153 261 243
448 38 80 73 152 78 160 9 17 102 48 145 49 26 1 28 -1 22 -26 -7 -32 -201
-426 -219 -446 -7 -7 -23 -35 -36 -62 -14 -28 -34 -63 -45 -80 -12 -16 -29
-46 -40 -65 -48 -91 -349 -520 -364 -520 -4 0 -12 -8 -17 -19 -37 -69 -236
-294 -439 -496 -168 -168 -407 -385 -423 -385 -2 0 -18 -13 -36 -30 -18 -16
-37 -30 -43 -30 -7 0 -14 -6 -17 -13 -3 -7 -24 -26 -48 -42 -24 -17 -50 -36
-57 -42 -22 -21 -262 -186 -352 -243 -47 -29 -102 -64 -122 -76 -21 -13 -40
-24 -43 -24 -3 0 -24 -12 -48 -27 -79 -51 -238 -133 -503 -258 -209 -99 -645
-251 -904 -313 -251 -62 -285 -69 -505 -106 -245 -42 -449 -57 -875 -63 -549
-7 -832 13 -1320 97 -124 21 -557 123 -595 140 -11 5 -54 18 -95 30 -80 23
-352 115 -385 130 -11 5 -54 23 -95 39 -41 16 -109 43 -150 60 -101 43 -549
265 -594 296 -20 14 -40 25 -44 25 -4 0 -30 15 -57 33 -28 18 -72 46 -100 62
-27 16 -58 34 -67 40 -107 64 -449 301 -468 324 -3 3 -47 39 -98 79 -52 40
-106 84 -120 96 -308 267 -539 499 -752 751 -47 55 -87 102 -90 105 -3 3 -21
25 -40 50 -19 25 -37 47 -40 50 -9 8 -195 262 -216 295 -10 17 -22 35 -27 40
-16 20 -137 207 -137 212 0 2 -11 19 -25 37 -14 18 -25 36 -25 40 0 4 -12 26
-27 49 -16 23 -37 60 -48 82 -11 22 -22 42 -26 45 -7 6 -7 8 -137 265 -112
224 -179 375 -241 545 -23 63 -46 124 -51 135 -17 39 -88 261 -119 375 -18 63
-40 144 -51 180 -10 36 -26 103 -35 150 -9 47 -25 121 -35 165 -36 151 -90
547 -109 795 -5 63 -9 2572 -10 5575 -1 5936 2 5586 -55 5805 -24 91 -46 162
-65 205 -32 73 -95 198 -116 229 -14 20 -25 39 -25 42 0 7 -85 123 -127 174
-44 53 -139 149 -203 204 -48 43 -234 169 -262 179 -10 4 -18 11 -18 17 0 13
627 13 800 0z m4500 1 c0 -9 -115 -81 -130 -81 -5 0 -10 -4 -12 -8 -1 -5 -20
-20 -41 -34 -96 -64 -260 -223 -334 -323 -99 -133 -92 -122 -156 -239 -65
-120 -129 -294 -155 -421 -6 -27 -16 -79 -24 -115 -11 -54 -13 -1151 -13
-6235 0 -5900 1 -6176 18 -6305 24 -175 69 -419 102 -545 28 -106 123 -403
135 -420 4 -5 22 -48 41 -95 40 -102 169 -358 227 -453 23 -37 42 -70 42 -73
0 -2 5 -10 11 -17 9 -11 119 -175 144 -215 6 -8 24 -31 40 -50 17 -18 34 -41
39 -49 9 -17 13 -21 107 -133 132 -156 300 -324 444 -445 33 -27 62 -53 65
-56 11 -12 281 -209 287 -209 3 0 21 -11 39 -25 18 -14 36 -25 40 -25 4 0 22
-11 40 -25 18 -14 35 -25 38 -25 2 0 42 -22 89 -49 79 -46 309 -161 321 -161
3 0 29 -11 58 -24 162 -75 488 -177 708 -220 343 -68 379 -71 865 -71 346 0
443 3 550 18 386 53 649 122 1015 269 88 35 429 205 464 231 6 4 79 52 161
106 227 149 440 324 609 500 92 96 96 100 166 181 36 41 68 77 71 80 12 11
139 181 155 210 10 16 22 30 26 30 4 0 8 5 8 11 0 6 20 38 44 72 24 34 55 82
69 107 67 117 112 200 138 253 16 31 33 58 39 58 5 1 13 2 18 3 4 1 23 6 42
10 19 4 43 10 53 12 11 4 17 0 17 -9 0 -26 -155 -317 -235 -442 -104 -163
-161 -250 -170 -259 -6 -6 -20 -27 -32 -46 -12 -19 -30 -44 -41 -55 -10 -11
-23 -27 -28 -36 -5 -9 -24 -34 -42 -55 -17 -22 -48 -59 -68 -84 -132 -164
-373 -415 -524 -546 -25 -21 -47 -42 -50 -45 -19 -23 -238 -194 -380 -296 -63
-45 -265 -173 -274 -173 -4 0 -15 -8 -26 -18 -33 -31 -468 -252 -565 -287 -27
-10 -54 -22 -60 -26 -18 -12 -276 -105 -415 -149 -203 -63 -497 -129 -690
-154 -381 -49 -385 -50 -785 -50 -382 0 -395 1 -635 32 -288 38 -597 102 -784
163 -34 11 -83 27 -111 35 -448 141 -947 399 -1370 708 -101 73 -196 152 -340
280 -176 156 -475 468 -475 495 0 6 -4 11 -10 11 -5 0 -27 24 -49 52 -22 29
-60 78 -84 108 -38 49 -161 219 -187 260 -76 118 -110 171 -126 200 -10 19
-24 42 -31 51 -15 18 -220 424 -247 489 -10 25 -30 72 -43 105 -30 74 -37 93
-51 125 -36 81 -152 463 -182 600 -57 254 -93 505 -110 752 -6 95 -10 2164
-10 5846 0 6151 -3 5799 50 5998 52 193 121 359 209 500 34 54 67 108 74 119
53 87 243 292 352 381 281 230 659 384 1010 413 138 11 855 13 855 2z"/>
<path d="M17589 25301 c-93 -6 -99 -7 -161 -50 -73 -49 -109 -103 -128 -191
-8 -41 -11 -269 -8 -870 4 -772 5 -818 23 -868 24 -67 92 -137 163 -169 l53
-23 502 0 c556 0 626 -5 780 -60 89 -31 188 -80 218 -106 8 -8 19 -14 23 -14
13 0 131 -99 182 -153 28 -29 69 -80 90 -113 22 -32 42 -61 45 -64 21 -17 92
-181 122 -285 20 -66 21 -100 24 -637 3 -481 2 -568 -10 -568 -15 0 -174 32
-272 55 -121 28 -582 114 -725 135 -36 6 -101 17 -145 25 -44 8 -163 26 -265
40 -102 14 -207 29 -235 35 -79 15 -683 81 -753 82 -56 0 -65 -3 -88 -27 -54
-58 -58 -118 -13 -170 17 -19 36 -35 42 -35 5 0 24 -11 41 -24 17 -13 63 -42
101 -66 39 -23 72 -45 75 -49 3 -4 19 -15 35 -25 60 -38 271 -199 350 -267
276 -238 523 -486 695 -699 19 -24 51 -62 71 -84 81 -93 379 -505 379 -525 0
-5 4 -11 8 -13 8 -3 142 -214 142 -223 0 -4 10 -21 23 -38 13 -18 34 -54 48
-82 13 -27 27 -52 30 -55 27 -22 314 -600 370 -744 11 -28 26 -64 33 -81 35
-77 146 -366 146 -379 0 -8 5 -18 10 -21 6 -3 10 -15 10 -25 0 -11 6 -34 14
-52 22 -50 85 -242 111 -338 13 -47 32 -114 43 -150 12 -36 28 -96 37 -134 17
-75 51 -120 101 -132 27 -7 218 25 429 71 61 14 164 36 230 49 66 14 170 37
230 51 61 14 144 33 185 41 41 9 78 18 81 20 4 2 62 17 130 33 68 16 178 43
244 61 66 18 145 38 175 46 30 7 102 27 160 44 265 77 321 94 415 122 55 16
125 38 155 48 280 91 389 128 540 181 354 124 660 246 1044 416 93 41 176 79
185 83 9 5 112 57 229 115 367 182 426 215 447 255 24 46 15 119 -15 140 -4 3
-21 15 -36 27 -82 63 -212 158 -262 192 -242 163 -345 231 -348 231 -5 0 -87
53 -94 60 -10 12 -111 70 -120 70 -6 0 -10 5 -10 10 0 6 -4 10 -10 10 -5 0
-50 25 -100 55 -50 30 -92 55 -94 55 -2 0 -54 30 -117 66 -62 36 -141 80 -174
96 -33 17 -61 34 -63 39 -2 5 -11 9 -21 9 -9 0 -21 4 -26 9 -14 13 -411 211
-424 211 -6 0 -11 5 -11 10 0 6 -6 10 -12 10 -7 0 -56 20 -108 45 -52 25 -101
45 -107 45 -7 0 -13 5 -13 10 0 6 -7 10 -16 10 -8 0 -43 14 -77 31 -34 17 -84
40 -112 51 -27 11 -63 26 -80 33 -16 8 -59 26 -95 40 -36 15 -84 36 -107 46
-23 10 -47 19 -53 19 -6 0 -37 12 -68 26 -31 14 -66 30 -77 35 -21 9 -91 34
-136 49 -15 4 -42 15 -60 23 -19 8 -68 27 -109 42 -41 15 -88 32 -105 38 -16
6 -57 21 -90 32 l-60 20 -3 780 c-3 809 0 874 39 998 27 87 70 187 81 187 4 0
8 6 8 14 0 44 181 263 275 332 22 16 42 32 45 35 10 11 144 89 154 89 6 0 22
6 36 13 45 23 115 47 186 64 58 13 159 17 614 22 l545 6 48 24 c60 30 108 78
138 138 l24 48 3 864 2 864 -35 71 c-23 47 -46 78 -65 89 -16 10 -35 23 -42
30 -47 44 89 42 -2923 43 -1562 0 -2883 -2 -2936 -5z m5421 -1060 l0 -480
-582 -3 c-552 -4 -589 -5 -695 -26 -210 -41 -360 -94 -501 -177 -33 -19 -63
-35 -67 -35 -8 0 -120 -77 -159 -110 -224 -187 -365 -364 -479 -603 -32 -66
-40 -77 -52 -67 -8 7 -15 18 -15 26 0 7 -20 52 -46 101 -121 233 -293 432
-503 579 -42 30 -80 57 -86 62 -5 4 -39 23 -75 41 -36 19 -67 37 -70 41 -3 4
-18 12 -35 18 -16 6 -66 24 -110 41 -92 35 -203 66 -325 89 -70 13 -191 16
-707 19 l-623 4 0 480 0 479 2565 0 2565 0 0 -479z m-3604 -785 c108 -37 193
-76 272 -126 41 -25 82 -50 92 -55 54 -32 300 -264 300 -285 0 -4 12 -20 26
-36 71 -81 170 -277 213 -424 60 -201 61 -212 61 -942 0 -640 -1 -668 -18
-668 -10 0 -56 11 -102 25 -46 14 -94 25 -106 25 -13 0 -25 4 -28 9 -3 4 -7
284 -9 622 -5 708 -7 737 -81 964 -15 44 -35 99 -46 122 -11 24 -20 45 -20 48
0 8 -43 100 -50 105 -3 3 -21 32 -39 65 -19 33 -37 62 -40 65 -4 3 -17 21 -29
40 -12 19 -32 47 -44 62 -13 15 -33 40 -46 56 -62 81 -259 255 -349 309 -39
23 -55 43 -35 43 5 0 40 -11 78 -24z m2134 -21 c0 -3 -19 -16 -41 -31 -68 -43
-208 -171 -304 -278 -136 -152 -280 -433 -334 -651 -50 -204 -51 -220 -51
-969 0 -391 -4 -707 -9 -710 -5 -3 -51 7 -102 22 l-94 28 0 740 0 739 28 113
c40 160 54 195 165 407 33 64 154 213 228 283 121 113 179 157 274 208 30 16
57 31 60 34 3 3 37 19 75 37 65 29 105 40 105 28z"/>
<path d="M15180 21470 c0 -14 0 -1095 0 -2403 0 -2599 -4 -2408 56 -2435 54
-25 861 -4 1504 38 662 44 837 58 1215 100 50 5 160 17 245 26 85 8 164 17
175 20 11 2 146 20 300 39 154 20 361 49 460 64 99 16 203 32 230 35 28 4 71
11 96 17 l46 10 -18 72 c-28 116 -47 186 -75 277 -34 113 -133 420 -144 445
-5 11 -21 54 -35 95 -15 41 -33 89 -40 105 -7 17 -34 84 -60 150 -89 222 -269
602 -357 752 -26 44 -48 84 -48 89 0 4 -6 15 -14 23 -7 9 -26 41 -42 71 -16
30 -39 69 -51 86 -13 17 -23 34 -23 37 0 15 -311 470 -340 497 -3 3 -13 16
-21 30 -15 23 -49 65 -182 225 -23 28 -64 74 -92 104 -27 30 -57 62 -65 71
-72 79 -247 253 -314 312 -174 154 -218 192 -259 221 -23 17 -53 41 -67 54
-14 13 -28 23 -32 23 -3 0 -13 6 -20 13 -25 23 -97 77 -102 77 -3 0 -27 15
-53 34 -153 108 -532 315 -678 370 -27 11 -70 28 -95 39 -87 38 -301 106 -457
146 -172 43 -306 66 -510 85 l-133 12 0 -26z"/>
<path d="M25045 18408 c-44 -24 -82 -46 -85 -49 -3 -3 -57 -33 -120 -65 -63
-32 -117 -61 -120 -64 -13 -13 -130 -70 -144 -70 -9 0 -16 -4 -16 -9 0 -9
-129 -71 -148 -71 -7 0 -12 -4 -12 -10 0 -5 -4 -10 -10 -10 -5 0 -71 -29 -145
-65 -75 -36 -138 -65 -142 -65 -3 0 -39 -16 -80 -35 -41 -19 -77 -35 -79 -35
-2 0 -23 -9 -47 -19 -23 -11 -78 -34 -122 -52 -44 -17 -102 -42 -130 -54 -27
-12 -167 -66 -310 -120 -143 -53 -269 -101 -280 -105 -11 -5 -63 -23 -115 -40
-52 -17 -104 -35 -115 -39 -28 -13 -60 -23 -240 -80 -312 -98 -450 -140 -480
-146 -16 -4 -39 -10 -50 -15 -28 -11 -128 -40 -210 -61 -447 -115 -876 -222
-940 -235 -44 -8 -134 -28 -200 -44 -66 -15 -138 -31 -160 -34 -22 -4 -89 -18
-150 -31 -60 -13 -154 -33 -209 -44 -91 -19 -102 -24 -142 -64 -63 -64 -71
-103 -51 -252 9 -66 21 -145 27 -175 25 -138 64 -488 91 -810 5 -63 12 -277
15 -475 12 -663 -34 -1260 -143 -1860 -38 -211 -40 -261 -11 -314 50 -93 102
-114 433 -176 77 -14 176 -34 220 -45 44 -10 105 -23 135 -29 81 -16 417 -97
640 -153 366 -93 461 -118 493 -132 18 -7 50 -16 72 -20 40 -8 169 -44 254
-71 25 -8 127 -40 226 -71 99 -31 252 -81 340 -111 88 -30 185 -63 215 -73 30
-10 87 -30 125 -45 39 -14 104 -38 145 -52 41 -14 99 -36 128 -49 29 -13 56
-24 61 -24 5 0 30 -9 57 -21 63 -26 75 -31 159 -64 39 -16 88 -36 111 -46 22
-10 63 -27 90 -38 186 -75 901 -416 924 -441 5 -5 27 -17 134 -73 66 -34 145
-46 198 -28 18 6 56 29 83 52 130 106 483 450 620 605 33 38 80 91 105 119 37
41 90 106 213 260 4 6 39 53 77 105 39 52 73 100 77 105 11 14 142 213 168
255 48 78 94 158 120 210 15 30 30 57 34 60 8 7 103 202 132 270 12 30 26 60
30 65 4 6 21 46 39 90 17 44 36 89 41 100 18 42 82 235 120 370 57 198 101
416 129 640 36 286 26 816 -20 1050 -6 28 -21 109 -35 180 -42 222 -109 458
-204 709 -81 214 -239 528 -382 761 -10 17 -26 43 -35 59 -8 15 -38 59 -65 97
-27 38 -49 71 -49 74 0 3 -38 57 -85 120 -47 63 -85 120 -85 125 0 6 -4 10 -8
10 -5 0 -29 26 -54 58 -117 147 -142 177 -147 182 -3 3 -35 39 -70 80 -95 110
-531 543 -579 575 -33 22 -57 29 -110 32 -63 4 -71 2 -147 -39z"/>
<path d="M19285 16588 c-71 -10 -173 -26 -225 -34 -159 -25 -210 -33 -340 -49
-69 -8 -213 -26 -320 -39 -207 -26 -245 -30 -720 -75 -604 -58 -1248 -96
-1885 -111 -242 -6 -463 -15 -492 -21 -55 -11 -95 -41 -116 -86 -9 -22 -13
-347 -15 -1458 -3 -1609 -8 -1493 72 -1550 l41 -30 295 -7 c1370 -31 2572
-134 3730 -318 69 -11 138 -17 154 -14 50 11 101 67 119 132 46 167 125 720
163 1142 24 269 30 967 10 1260 -19 292 -64 700 -100 915 -8 44 -19 114 -25
155 -18 111 -28 136 -74 175 -49 42 -73 43 -272 13z"/>
<path d="M15251 12759 c-19 -13 -43 -38 -53 -55 -17 -29 -18 -131 -18 -2260 0
-1226 3 -2240 7 -2254 8 -30 36 -58 85 -84 36 -19 39 -19 165 -2 140 19 337
57 423 82 30 8 93 26 140 39 170 47 425 151 645 263 83 43 152 80 155 83 3 3
21 14 40 25 19 10 41 25 48 32 7 6 18 12 24 12 6 0 31 15 57 33 25 17 53 37
63 42 24 15 228 158 241 170 7 6 53 44 102 85 305 251 592 546 815 835 46 61
89 115 95 122 5 6 26 35 45 63 19 28 45 64 57 80 48 59 213 314 279 430 17 30
48 84 69 120 87 152 243 457 275 540 8 19 17 37 20 40 3 3 14 28 25 55 10 28
31 77 46 110 75 163 266 699 315 884 17 65 7 114 -32 160 -21 25 -40 33 -117
50 -135 29 -616 96 -1022 141 -104 11 -221 25 -260 30 -38 6 -232 24 -430 40
-198 16 -376 32 -395 35 -65 9 -549 36 -1095 60 -55 2 -253 7 -440 11 l-340 6
-34 -23z"/>
</g>
</svg>
